<svg xmlns="http://www.w3.org/2000/svg" viewBox="0 0 107.64 149.59">
  <defs>
    <style>
      .cls-1 {
        fill: #0b85a6;
      }
    </style>
  </defs>
  <g id="Layer_2" data-name="Layer 2">
    <g id="Layer_1-2" data-name="Layer 1">
      <g id="Layer_2-2" data-name="Layer 2">
        <g id="Logo">
          <path class="cls-1" d="M104.51,0H82.09A2.92,2.92,0,0,0,79,2.75a1.93,1.93,0,0,0,0,.34v55c-6.79-8.85-17.07-14.2-31.06-14.2C19.55,43.84,0,66.89,0,96.71c0,30,19.55,52.88,47.94,52.88,15.22,0,25.92-6.38,32.91-16.67L81.26,144A2.92,2.92,0,0,0,84,147.12h20.34a3.08,3.08,0,0,0,3.28-2.86,1.7,1.7,0,0,0,0-.22V3.09A2.93,2.93,0,0,0,104.89,0ZM53.9,123.71c-15,0-26.13-10.7-26.13-26.95,0-16.06,11.11-27,26.13-27s25.51,10.7,25.51,27S68.92,123.71,53.9,123.71Z"/>
        </g>
      </g>
    </g>
  </g>
</svg>
