<svg xmlns="http://www.w3.org/2000/svg" width="20" height="20" viewBox="0 0 20 20">
  <g id="search-Filled" opacity="0.67">
    <rect id="Path" width="20" height="20" fill="rgba(255,255,255,0)"/>
    <path id="search-Filled_1_" d="M269.07,2498.245l-3.7-3.783a7.142,7.142,0,0,0,1.494-4.378,6.933,6.933,0,1,0-6.931,7.083,6.794,6.794,0,0,0,4.284-1.527l3.7,3.782a.8.8,0,0,0,1.153,0A.845.845,0,0,0,269.07,2498.245Zm-14.439-8.161a5.3,5.3,0,1,1,5.3,5.417A5.366,5.366,0,0,1,254.631,2490.084Z" transform="translate(-251.369 -2481.333)" fill="#00363f"/>
  </g>
</svg>
